# xmcd
#
# Track frame offsets:
#	182
#	20977
#	38730
#	53602
#	72290
#	88692
#	116090
#	131465
#	149747
#	169107
#	188930
#	212817
#	228852
#	241452
#	254032
#
# Disc length: 3568 seconds
#
# Revision: 1
# Processed by: cddbd v1.5.2PL0 Copyright (c) Steve Scherf et al.
# Submitted via: audiograbber 1.83.01
#
DISCID=e20dee0f
DTITLE=Calvin Russell - A Crack In Time
DYEAR=1990
DGENRE=Southern Rock
TTITLE0=A Crack In Time
TTITLE1=Living At The End Of A Gun
TTITLE2=Big Brother
TTITLE3=I Should Have Been Home
TTITLE4=Nothin'
TTITLE5=My Way
TTITLE6=Behind The 8 Ball
TTITLE7=This Is My Life
TTITLE8=Automated
TTITLE9=Little Stars
TTITLE10=North Austin Slim
TTITLE11=Moments
TTITLE12=One Step Ahead
TTITLE13=Wagon To Stars
TTITLE14=Life Of A Texas Man [bonus track]
EXTD=
EXTT0=
EXTT1=
EXTT2=
EXTT3=
EXTT4=
EXTT5=
EXTT6=
EXTT7=
EXTT8=
EXTT9=
EXTT10=
EXTT11=
EXTT12=
EXTT13=
EXTT14=
PLAYORDER=
